<?xml version="1.0" encoding="utf-8"?>
<svg version="1.1" id="Layer_1" xmlns="http://www.w3.org/2000/svg" xmlns:xlink="http://www.w3.org/1999/xlink" x="0px" y="0px"
     viewBox="0 0 450.4 62.8" style="enable-background:new 0 0 450.4 62.8;" xml:space="preserve">
<style type="text/css">
	.st0{fill:#FFFFFF;}
	.st1{fill:url(#SVGID_1_);}
</style>
    <g>
	<path class="st0" d="M67.8,32.2c0-10.2,8.7-18.6,19.4-18.6s19.5,8.4,19.5,18.6c0,10.3-8.8,18.7-19.5,18.7S67.8,42.6,67.8,32.2z
		 M77.3,32.2c0,5.9,4.2,10.2,9.8,10.2c5.5,0,9.8-4.4,9.8-10.2c0-5.7-4.3-10.1-9.8-10.1C81.7,22.1,77.3,26.5,77.3,32.2z"/>
        <path class="st0" d="M122.7,34.2V50H113V14.2h9.7V19c3.6-4.8,9.7-5.5,12.2-5.4v9.5C132.6,22.9,122.7,23.4,122.7,34.2z"/>
        <path class="st0" d="M166.5,46.5c-1.5,2-5.8,4.4-10.9,4.4c-11.3,0-18-8.4-18-18.7s6.6-18.7,18-18.7c5.2,0,9,2.1,10.9,4.5V0.8h9.6
		V50h-9.6V46.5z M157,22c-6.2,0-9.8,4.3-9.8,10.1c0,5.7,3.8,10.1,9.8,10.1c6.1,0,9.8-3.8,9.8-10.1C166.9,26.2,163.1,22,157,22z"/>
        <path class="st0" d="M189.6,10.5c-3,0-5.5-2.3-5.5-5.3c0-2.9,2.5-5.2,5.5-5.2c2.9,0,5.3,2.3,5.3,5.2C195,8.1,192.6,10.5,189.6,10.5
		z M184.7,14.3h9.8V50h-9.8V14.3z"/>
        <path class="st0" d="M236,28.9V50h-10V28.9c0-5.5-3.1-7.2-6.9-7.2c-2.7,0-7,1.6-6.8,9.4V50h-9.7V14.2h9.7v3.2
		c2.4-2.4,6.4-3.8,9.6-3.8C232.2,13.6,236,19.6,236,28.9z"/>
        <path class="st0" d="M271.2,46.5c-1.5,2-5.8,4.4-10.9,4.4c-11.3,0-18-8.4-18-18.7s6.6-18.7,18-18.7c5.2,0,9,2.1,10.9,4.5v-3.7h9.6
		V50h-9.6V46.5z M261.8,22c-6.2,0-9.8,4.3-9.8,10.1c0,5.7,3.8,10.1,9.8,10.1c6.1,0,9.8-3.8,9.8-10.1C271.6,26.2,267.8,22,261.8,22z"
        />
        <path class="st0" d="M289.1,0.8h9.8V50h-9.8V0.8z"/>
        <path class="st0" d="M304.7,45.3l5.1-6.8c2.8,1.9,7.3,3.8,11.6,3.8c3,0,5.1-1.4,5.1-3.2c0-2.4-5-2.7-6.9-3
		c-4.9-0.8-14.2-2.3-14.2-11.3c0-10.5,11.3-11.3,14.8-11.3c5.7,0,10.2,1.6,14.9,5.1l-5.1,6.6c-2.7-1.6-6.2-3.3-10.2-3.3
		c-1.9,0-4.7,0.9-4.7,2.7c0,2.4,5.2,3,6.8,3.2c6.1,1,14.2,2.1,14.2,11.3c0,7.4-5.3,11.6-14.7,11.6C313.8,50.9,308.6,48.4,304.7,45.3
		z"/>
        <g>
		
			<linearGradient id="SVGID_1_" gradientUnits="userSpaceOnUse" x1="358.8147" y1="-1.2353" x2="433.2967" y2="73.2467" gradientTransform="matrix(1 0 0 -1 0 62)">
			<stop offset="0" style="stop-color:#F9B233"/>
                <stop offset="1" style="stop-color:#FFD810"/>
		</linearGradient>
            <path class="st1" d="M342.5,50V0.8h9.6V18c1.8-2.4,5.7-4.5,10.9-4.5c11.3,0,18,8.4,18,18.7s-6.6,18.7-18,18.7
			c-5.1,0-9.4-2.3-10.9-4.4V50H342.5z M361.6,42.2c6,0,9.8-4.4,9.8-10.1c0-5.9-3.6-10.1-9.8-10.1c-6.1,0-9.8,4.2-9.8,10.1
			C351.8,38.4,355.5,42.2,361.6,42.2z M385.8,32.2c0-10.2,8.7-18.6,19.4-18.6c10.7,0,19.5,8.4,19.5,18.6c0,10.3-8.8,18.7-19.5,18.7
			C394.5,50.9,385.8,42.6,385.8,32.2z M395.4,32.2c0,5.9,4.2,10.2,9.8,10.2c5.5,0,9.8-4.4,9.8-10.2c0-5.7-4.3-10.1-9.8-10.1
			C399.7,22.1,395.4,26.5,395.4,32.2z M443.2,37.3c0,2,0.1,5.3,4.4,5.3c1.1,0,1.9-0.1,2.5-0.1v8.2c-1.2,0.1-3,0.3-4.4,0.3
			c-7.5,0-12.2-1.4-12.2-8.9V22.2h-4.4v-8.5h4.4V4.1h9.6v9.6h7.2v8.5h-7.2v15.1H443.2z"/>
	</g>
</g>
    <g id="bot_00000160871116441529050890000007867073548536933546_">
	<path class="st0" d="M46.9,34.9C49.7,72-2.6,72,0.1,34.9c0-0.9,0.7-1.6,1.6-1.6l0,0h43.6C46.2,33.4,46.9,34.1,46.9,34.9L46.9,34.9z
		 M40.5,5.6V24c0,2.8-2.2,5-5,5h-24c-2.8,0-5-2.3-5-5V5.6c0-2.8,2.3-5.1,5.1-5.1h23.9C38.3,0.5,40.5,2.8,40.5,5.6L40.5,5.6z
		 M21.5,14.5c0-2.5-2.1-4.5-4.6-4.5s-4.4,2-4.5,4.5c0,2.5,2.1,4.5,4.6,4.5S21.5,17,21.5,14.5z M34.6,14.5c0-2.5-2.1-4.5-4.6-4.5
		s-4.4,2-4.5,4.5c0,2.5,2.1,4.5,4.6,4.5C32.5,19,34.5,17,34.6,14.5L34.6,14.5z M30,13.1c-0.8,0-1.4,0.7-1.3,1.4
		c0,0.7,0.6,1.3,1.3,1.3c0.8,0,1.4-0.7,1.3-1.4C31.3,13.7,30.7,13.2,30,13.1L30,13.1z M17,13.1c-0.8,0-1.4,0.7-1.3,1.4
		c0,0.7,0.6,1.3,1.3,1.3c0.8,0,1.4-0.7,1.3-1.4C18.3,13.7,17.7,13.2,17,13.1L17,13.1z"/>
</g>
</svg>
